<?xml version="1.0" encoding="UTF-8"?>
<svg width="210px" height="36px" viewBox="0 0 210 36" version="1.1" xmlns="http://www.w3.org/2000/svg" xmlns:xlink="http://www.w3.org/1999/xlink">
    <title>logo-横版</title>
    <g id="页面-1" stroke="none" stroke-width="1" fill="none" fill-rule="evenodd">
        <g id="logo-横版" fill-rule="nonzero">
            <path d="M122.699417,31.3695095 L111.517443,31.3695095 L111.517443,13.6445768 C111.515317,13.2569533 111.19977,12.9426426 110.808477,12.9383886 L108.204995,12.9383886 C107.810627,12.9383886 107.490319,13.2539296 107.488152,13.6445768 L107.488152,34.1279351 C107.490319,34.5185823 107.810627,34.8341232 108.204995,34.8341232 L122.707295,34.8341232 C123.097047,34.827764 123.410233,34.5140616 123.412322,34.1279351 L123.412322,32.0756976 C123.410155,31.6850504 123.089847,31.3695036 122.695479,31.3695095" id="路径" fill="#4A4A4A"></path>
            <path d="M170.189301,15.7089648 L170.189301,13.6631807 C170.194621,13.4727688 170.12185,13.2883244 169.987544,13.151809 C169.853238,13.0152936 169.668818,12.9383886 169.47624,12.9383886 L154.978639,12.9383886 C154.788838,12.9383886 154.606869,13.0132295 154.47303,13.1463445 C154.339191,13.2794595 154.264529,13.4598601 154.265577,13.6475938 L154.265577,15.6933779 C154.261337,15.8831231 154.334587,16.0665516 154.468774,16.2022131 C154.602961,16.3378747 154.786761,16.4143196 154.978639,16.4142732 L160.206442,16.4142732 L160.206442,34.1288148 C160.206442,34.5183459 160.52569,34.8341232 160.919503,34.8341232 L163.527496,34.8341232 C163.921309,34.8341232 164.240557,34.5183459 164.240557,34.1288148 L164.240557,16.4142732 L169.47624,16.4142732 C169.870053,16.4142732 170.189301,16.0984959 170.189301,15.7089648" id="路径" fill="#4A4A4A"></path>
            <path d="M132.962532,21.8957346 L124.809979,21.8957346 C124.580613,21.8957346 124.407583,22.2588702 124.407583,22.7071859 L124.407583,25.0608428 C124.407583,25.5091584 124.592685,25.8767773 124.809979,25.8767773 L132.962532,25.8767773 C133.191898,25.8767773 133.364929,25.5136416 133.364929,25.0608428 L133.364929,22.7071859 C133.364929,22.2588702 133.179827,21.8957346 132.962532,21.8957346" id="路径" fill="#4A4A4A"></path>
            <path d="M105.776756,12.9383886 L91.2809207,12.9383886 C90.8875833,12.9383886 90.5687204,13.2545703 90.5687204,13.6445869 L90.5687204,34.127925 C90.5687204,34.5179415 90.8875833,34.8341232 91.2809207,34.8341232 L105.768886,34.8341232 C105.958454,34.8351509 106.140618,34.761208 106.275033,34.6286594 C106.409449,34.4961108 106.485024,34.3158955 106.485021,34.127925 L106.485021,32.0795912 C106.486075,31.8909454 106.410964,31.7097235 106.276434,31.5763288 C106.141903,31.442934 105.959138,31.3684569 105.768886,31.3695021 L94.6058341,31.3695021 L94.6058341,25.6185611 L104.985859,25.6185611 C105.379838,25.618567 105.69983,25.3030205 105.701994,24.9123736 L105.701994,22.8640398 C105.701994,22.4718685 105.38137,22.1539508 104.985859,22.1539508 L94.6058341,22.1539508 L94.6058341,16.4225177 L105.776756,16.4225177 C105.966324,16.4235562 106.148487,16.3496132 106.282903,16.2170647 C106.417319,16.0845161 106.492891,15.9043007 106.492891,15.7163302 L106.492891,13.6445869 C106.492891,13.4566164 106.417319,13.276401 106.282903,13.1438524 C106.148487,13.0113039 105.966324,12.9373609 105.776756,12.9383886" id="路径" fill="#4A4A4A"></path>
            <path d="M150.426562,23.8282073 C148.626198,22.702257 146.934477,22.4366279 145.42124,22.2066803 C143.845921,21.9608742 142.600411,21.7666081 141.812752,20.6565163 C141.352286,20.0249805 141.163177,19.2291667 141.288939,18.452191 C141.377425,17.9835109 141.603433,17.5534535 141.936915,17.2191961 L141.936915,17.2191961 C142.406406,16.6958671 143.275547,16.3905919 144.264972,16.3905919 L144.424056,16.3905919 C145.701879,16.3902522 146.921088,16.9383318 147.784218,17.9011097 C148.322861,18.5909711 148.680724,19.4096105 148.824083,20.279878 C148.863824,20.5220696 149.068759,20.6996402 149.309095,20.700127 L152.312289,20.700127 C152.448602,20.6992584 152.578768,20.6420536 152.673137,20.5415425 C152.765926,20.4428376 152.815017,20.3095558 152.808941,20.1728334 C152.772391,19.0854021 152.507754,18.0186662 152.032922,17.0447531 C149.825148,12.6638549 144.19513,12.9334486 143.950684,12.9453425 C143.066749,12.988931 142.192469,13.1529295 141.35102,13.43299 C140.010873,13.8341494 138.851584,14.7043094 138.07622,15.8910505 C137.633841,16.6290287 137.355668,17.4573639 137.2614,18.3173941 C137.051875,19.9944258 137.242,21.3146422 137.839534,22.353371 C138.30479,23.1134749 138.959662,23.73335 139.736901,24.149341 C140.695212,24.7176671 141.74724,25.1019596 142.840977,25.2832206 C144.032623,25.5184983 145.201302,25.8621441 146.333062,26.3100555 C147.497091,26.7739153 148.381752,27.1664121 148.843484,27.9712287 C149.218252,28.6386897 149.258618,29.4488674 148.952126,30.1517663 C148.513676,31.5076642 147.163403,32.2371531 145.130233,32.2371531 C144.943988,32.2371531 144.742223,32.2371531 144.559859,32.2371531 L144.559859,32.2371531 C143.912053,32.2123824 143.280275,32.0244403 142.720694,31.6900364 C141.843792,31.1746366 140.737965,30.0407571 140.446958,27.5945904 C140.417808,27.3378691 140.207086,27.1429017 139.954186,27.1386598 L136.85011,27.1386598 C136.710521,27.1383941 136.577066,27.1972453 136.481501,27.301209 C136.385131,27.4084729 136.338497,27.5528667 136.353458,27.6976703 C136.555223,30.0764386 137.207079,31.4363011 137.575688,32.0309932 C138.603913,33.6802725 140.722445,35.6744733 144.982789,35.8290932 C145.149633,35.8290932 145.370799,35.8290932 145.657926,35.8290932 C146.557951,35.8356327 147.455494,35.7318108 148.331311,35.5198533 C149.974237,35.1684621 151.416389,34.1718475 152.347209,32.7446237 L152.347209,32.7446237 C152.649857,32.2728346 153.60824,30.52444 153.146509,27.8086795 C152.807432,26.164305 151.826495,24.7324414 150.430443,23.8440658" id="路径" fill="#4A4A4A"></path>
            <path d="M205.335374,19.3223923 C205.183239,20.698829 204.012645,21.737447 202.625102,21.7271004 L202.422027,21.7271004 L197.770824,21.7271004 C197.649998,21.7271049 197.534176,21.6789383 197.449106,21.5933082 C197.364037,21.507678 197.316769,21.3916807 197.317793,21.2711023 L197.317793,16.9527611 C197.316769,16.8321827 197.364037,16.7161853 197.449106,16.6305552 C197.534176,16.544925 197.649998,16.496763 197.770824,16.496763 L202.609481,16.496763 C203.36347,16.4978255 204.084321,16.8061389 204.605085,17.3502979 C205.116746,17.875183 205.382039,18.5915852 205.335374,19.3223923 M209.943618,34.1325877 L206.268739,25.4218544 C207.779435,24.7833429 208.93987,23.5243577 209.451552,21.9687404 C210.041251,20.0745944 209.896755,17.7634244 209.100075,16.3447636 C208.282189,14.9527573 206.977501,13.9116663 205.436912,13.4216987 C204.517512,13.14133 203.566082,12.9789308 202.605575,12.9384034 L193.584351,12.9384034 C193.4511,12.9373797 193.322949,12.98948 193.228357,13.0831491 C193.133766,13.1768182 193.080569,13.3043019 193.080569,13.4372884 L193.080569,34.0936135 C193.082717,34.4838429 193.400308,34.7990523 193.791332,34.7990464 L196.37273,34.7990464 C196.763116,34.7990464 197.079587,34.4832133 197.079587,34.0936135 L197.079587,25.9090318 L202.113509,25.9090318 L205.75324,34.5262271 C205.832717,34.7122045 206.015379,34.8332228 206.21797,34.8341232 L209.498415,34.8341232 C209.666806,34.8332054 209.823602,34.7483842 209.916281,34.6080729 C210.009922,34.4698089 210.026131,34.2933322 209.95924,34.1403825" id="形状" fill="#4A4A4A"></path>
            <path d="M182.422006,13.2448979 C182.34378,13.0595414 182.165202,12.939157 181.967333,12.9383886 L178.302976,12.9383886 C178.104801,12.9381213 177.925715,13.0588484 177.848303,13.2448979 L169.236487,34.1189333 C169.168795,34.2756615 169.183276,34.4566504 169.274985,34.6001141 C169.366695,34.7435779 169.523233,34.8301178 169.69116,34.8301909 L172.927816,34.8301909 C173.128012,34.8303239 173.308747,34.70796 173.386342,34.5197525 L180.137081,18.1922643 L183.547129,26.4444244 L179.119847,26.4444244 L177.686471,29.9024724 L177.686471,29.9378388 L185.007478,29.9378388 L186.903233,34.5236821 C186.978606,34.7119792 187.158481,34.834793 187.357906,34.8341232 L190.594562,34.8341232 C190.760341,34.8322883 190.914491,34.7469227 191.006276,34.6061213 C191.09806,34.4653198 191.115588,34.2873246 191.053088,34.1307221 L182.422006,13.2448979 Z" id="路径" fill="#4A4A4A"></path>
            <path d="M83.302655,19.3287109 C83.2475181,20.0246433 82.9157875,20.6704688 82.3802913,21.1244031 C81.87276,21.5639066 81.2076616,21.7820587 80.5355638,21.7294734 L76.1523651,21.7294734 C76.030416,21.7305145 75.9131,21.6832662 75.8264964,21.5982316 C75.7398928,21.513197 75.6911833,21.3974232 75.6911833,21.2766466 L75.6911833,16.9552741 C75.6911833,16.7030289 75.8976614,16.4985437 76.1523651,16.4985437 L80.7168832,16.4985437 C81.4085681,16.500728 82.069303,16.7827785 82.5458438,17.2792795 C83.0779325,17.8234321 83.3528444,18.5650524 83.302655,19.3209035 M76.1523651,31.4066932 C76.030416,31.4077344 75.9131,31.360486 75.8264964,31.2754514 C75.7398928,31.1904168 75.6911833,31.074643 75.6911833,30.9538665 L75.6911833,26.109401 C75.6911833,25.9886245 75.7398928,25.8728507 75.8264964,25.7878161 C75.9131,25.7027815 76.030416,25.6555331 76.1523651,25.656538 L81.2174823,25.656538 C81.9865259,25.6526519 82.7223272,25.9667707 83.2474709,26.523191 C83.833902,27.12076 84.1375008,27.936252 84.0831167,28.7678063 C84.0220722,29.5337438 83.656251,30.2442819 83.0661515,30.7430678 C82.5098256,31.2275818 81.7784299,31.4671482 81.0401046,31.4066932 L76.1523651,31.4066932 Z M85.7465248,23.6617944 C85.5952909,23.5867315 85.495004,23.4384943 85.4824292,23.2714265 C85.4679949,23.1194451 85.5353762,22.971154 85.6598068,22.8810586 C86.3154197,22.3981422 86.8407139,21.762611 87.1891963,21.0307149 C87.9787567,19.3025997 87.8563342,17.2999342 86.8620331,15.6787712 C85.8411262,14.1485291 84.2486691,13.6371471 83.3933147,13.3599859 L83.3657226,13.3599859 C82.7088284,13.1794187 82.0327868,13.0759123 81.351501,13.0515953 L72.163339,12.9383886 L72.163339,12.9383886 C71.8846888,12.9383886 71.6587827,13.1620989 71.6587827,13.4380595 L71.6587827,34.3305487 C71.6577474,34.4637447 71.71044,34.5918431 71.8051739,34.6863956 C71.8999078,34.780948 72.0288407,34.8341232 72.163339,34.8341232 L81.5840628,34.8341232 C82.5100681,34.8112889 83.4287974,34.6655535 84.3156785,34.4008149 C86.720131,33.6786343 87.6897954,32.3123467 88.0800262,31.2778718 C89.4280963,27.7645608 87.6149026,25.4223535 87.5991357,25.3950278 C87.1712667,24.6395885 86.5227143,24.0299551 85.7386413,23.6461797" id="形状" fill="#4A4A4A"></path>
            <path d="M40.8056872,31.022837 L40.8056872,34.8341232 L47.2345073,34.8341232 C47.2345073,34.8341232 50.3123049,34.5956694 52.7150765,33.1252045 C55.1237372,31.7132421 56.9873523,29.5468658 58.010817,26.9691227 C58.7039364,25.0234788 58.893187,22.937079 58.5612847,20.9004739 L54.808461,21.7310879 C54.808461,21.7310879 55.6442076,24.0202442 53.4101926,27.5056437 C51.1761776,30.9910431 46.6197514,31.0824504 46.6197514,31.0824504 L40.8056872,31.022837 Z" id="路径" fill="#6DA4D8"></path>
            <path d="M39.4208817,3.68113436 L47.1173858,15.4077454 C47.1173858,15.4077454 36.9387591,24.1850076 37.8815809,34.8341232 C40.1174153,30.5516687 38.097083,24.7198229 53.7440758,15.1717975 L43.0844176,0.995260664 L39.4208817,3.68113436 Z" id="路径" fill="#EF3A61"></path>
            <path d="M34.6745798,0 L44.7867299,15.3469688 C44.7867299,15.3469688 34.9872849,23.7569663 37.363031,34.8341232 C34.3120044,29.7880102 34.5155629,23.498206 37.8869134,18.6465475 L30.8530806,4.6861873 L34.6745798,0 Z" id="路径" fill="#FFDB55"></path>
            <path d="M33.2275445,31.0071557 L12.6250466,31.0071557 C12.6250466,31.0071557 4.95533079,30.273915 4.26095323,23.800223 C3.56657566,17.3265309 9.7094499,15.4522579 10.4472261,15.3267836 C11.1850022,15.2013092 13.437784,14.5425689 17.0438129,16.0208135 C17.0817758,16.0388594 17.1256221,16.0402176 17.164642,16.0245564 C17.203662,16.0088952 17.2342627,15.9776567 17.2489699,15.938471 L17.2489699,15.8561285 C17.2489699,14.4327789 17.6198307,7.38661014 26.2206437,5.18688802 C22.3700044,17.2833991 28.516824,26.2822624 33.2275445,31.0071557 M35.851187,17.6088482 L27.9842048,0.995260664 C27.9842048,0.995260664 23.1077806,1.11681394 19.2176881,3.84588095 C15.3275956,6.57494797 13.9309499,11.2567095 13.9309499,11.2567095 C13.9309499,11.2567095 9.50429289,9.87257061 4.85669761,13.4132998 C1.84616298,15.7480249 0.0606463056,19.3115208 0,23.106193 C0,24.125672 0.16175841,29.7720176 6.55318825,33.4107736 C7.78048088,34.1220892 9.12825812,34.6044658 10.5300779,34.8341232 L37.8199052,34.8341232 C31.4679286,28.3172994 35.8472417,17.6088482 35.8472417,17.6088482" id="形状" fill="#6DA4D8"></path>
            <path d="M50.2735228,3.98104265 L61.7061611,19.7433132 C61.7061611,19.7433132 42.6142374,22.3337142 37.8199052,35.8293839 L38.3245718,32.2635849 C38.3245718,32.2635849 42.3890785,22.1658179 56.2712906,17.1249294 L47.9171182,5.71197422 L50.2735228,3.98104265 Z" id="路径" fill="#51AD5A"></path>
        </g>
    </g>
</svg>