<svg id="图层_1" data-name="图层 1" xmlns="http://www.w3.org/2000/svg" viewBox="0 0 295.81 57.72"><defs><style>.cls-1{fill:#6b7280;}.cls-2{fill:#3b82f6;}.cls-3{fill:#23cf60;}.cls-4{fill:#ff3860;}.cls-5{fill:#ffdb57;}.cls-6{fill:none;}</style></defs><path class="cls-1" d="M169.85,45.5H156.47V24.09a.86.86,0,0,0-.86-.85h-3.12a.85.85,0,0,0-.85.85V48.83a.85.85,0,0,0,.85.85h17.36a.85.85,0,0,0,.85-.85V46.35A.85.85,0,0,0,169.85,45.5Z"/><path class="cls-1" d="M226.59,26.55V24.08a.86.86,0,0,0-.85-.86H208.41a.87.87,0,0,0-.86.86v2.47a.86.86,0,0,0,.86.86h6.25V48.83a.85.85,0,0,0,.85.85h3.12a.86.86,0,0,0,.86-.85V27.41h6.25A.85.85,0,0,0,226.59,26.55Z"/><path class="cls-1" d="M180.94,34.36h-9.55c-.26,0-.48.38-.48.86v2.47c0,.47.22.86.48.86h9.55c.27,0,.49-.39.49-.86V35.22C181.43,34.74,181.21,34.36,180.94,34.36Z"/><path class="cls-1" d="M148.48,23.24H131.12a.85.85,0,0,0-.85.85V48.83a.85.85,0,0,0,.85.85h17.36a.85.85,0,0,0,.85-.85V46.35a.85.85,0,0,0-.85-.85H135.1v-7h12.43a.85.85,0,0,0,.85-.85V35.22a.85.85,0,0,0-.85-.85H135.1V27.42h13.38a.85.85,0,0,0,.85-.85V24.09A.85.85,0,0,0,148.48,23.24Z"/><path class="cls-1" d="M202.53,35.81a14.86,14.86,0,0,0-6.08-1.93c-1.91-.29-3.43-.52-4.38-1.85a3.44,3.44,0,0,1-.66-2.62A2.8,2.8,0,0,1,192.2,28h0a3.85,3.85,0,0,1,2.85-1h.19a5.54,5.54,0,0,1,4.08,1.8,6.22,6.22,0,0,1,1.26,2.85.59.59,0,0,0,.59.49h3.65a.63.63,0,0,0,.44-.19.56.56,0,0,0,.16-.43,8.94,8.94,0,0,0-1-3.72c-2.66-5.22-9.52-4.89-9.81-4.88a12.13,12.13,0,0,0-3.17.58,7.21,7.21,0,0,0-4,2.92,7,7,0,0,0-1,2.89,7.44,7.44,0,0,0,.7,4.79,6,6,0,0,0,2.29,2.13,11.26,11.26,0,0,0,3.79,1.36,23.76,23.76,0,0,1,4.23,1.23c1.44.55,2.49,1,3,2a2.88,2.88,0,0,1,.14,2.6c-.54,1.61-2.18,2.48-4.65,2.48l-.69,0h0a4.79,4.79,0,0,1-2.23-.64c-1.06-.62-2.41-2-2.76-4.87a.62.62,0,0,0-.6-.55H186a.59.59,0,0,0-.45.2.61.61,0,0,0-.16.45,11.5,11.5,0,0,0,1.49,5.16c1.25,2,3.82,4.33,9,4.51l.82,0A13.54,13.54,0,0,0,200,49.7a7.76,7.76,0,0,0,4.88-3.3v0a8.16,8.16,0,0,0,1-5.86A7.27,7.27,0,0,0,202.53,35.81Z"/><path class="cls-1" d="M273.45,48.87,269,38.34a6.88,6.88,0,0,0,3.84-4.18,9.36,9.36,0,0,0-.43-6.79A7.87,7.87,0,0,0,268,23.83a14,14,0,0,0-3.42-.59H253.71a.64.64,0,0,0-.43.18.62.62,0,0,0-.18.43v25a.86.86,0,0,0,.86.85h3.11a.85.85,0,0,0,.86-.85V38.92H264l4.4,10.42a.59.59,0,0,0,.56.37h3.95a.6.6,0,0,0,.56-.84ZM267.89,31a3.28,3.28,0,0,1-3.27,2.91h-5.86a.55.55,0,0,1-.54-.55V28.1a.55.55,0,0,1,.54-.55h5.84a3.35,3.35,0,0,1,2.41,1A3.13,3.13,0,0,1,267.89,31Z"/><path class="cls-1" d="M241.24,23.71a.61.61,0,0,0-.56-.37H236.2a.58.58,0,0,0-.55.37l-10.54,25a.58.58,0,0,0,.06.57.6.6,0,0,0,.5.27h4a.61.61,0,0,0,.56-.37l8.25-19.58,4.17,9.89H237.2l-1.75,4.15,0,0h8.95l2.32,5.5a.59.59,0,0,0,.56.37h4a.6.6,0,0,0,.51-.27.61.61,0,0,0,.05-.57Z"/><path class="cls-1" d="M125.15,36.2a.61.61,0,0,1-.32-.46.54.54,0,0,1,.22-.47A6,6,0,0,0,126.89,33a6.91,6.91,0,0,0-.39-6.46,7.3,7.3,0,0,0-4.15-2.8h0a10,10,0,0,0-2.41-.37l-11-.14h0a.63.63,0,0,0-.43.17.65.65,0,0,0-.18.44V49.08a.61.61,0,0,0,.61.6h11.26a12.49,12.49,0,0,0,3.27-.52,6.41,6.41,0,0,0,4.5-3.75,7.53,7.53,0,0,0-.58-7.1A5.12,5.12,0,0,0,125.15,36.2Zm-11.47,9.35a.55.55,0,0,1-.55-.55V39.15a.55.55,0,0,1,.55-.55h6a3.3,3.3,0,0,1,2.41,1,3.58,3.58,0,0,1,1,2.71,3.53,3.53,0,0,1-1.22,2.39,3.33,3.33,0,0,1-2.42.8ZM122.23,31a3.19,3.19,0,0,1-1.11,2.16,3,3,0,0,1-2.2.73h-5.24a.54.54,0,0,1-.55-.54V28.1a.55.55,0,0,1,.55-.55h5.46a3,3,0,0,1,2.18.95A3.27,3.27,0,0,1,122.23,31Z"/><path class="cls-2" d="M72.2,45.13v4.55h7.56a16.42,16.42,0,0,0,6.47-2,14.75,14.75,0,0,0,6.24-7.34,14.59,14.59,0,0,0,.65-7.23l-4.42,1s1,2.73-1.65,6.88-8,4.25-8,4.25Z"/><path class="cls-3" d="M82.84,12.14,96.72,30.72s-23.17,3.05-29,19l.61-4.2S73.26,33.59,90.1,27.63L80,14.17Z"/><path class="cls-4" d="M69.59,12.14l9.5,14.13S66.56,36.85,67.73,49.68h0C70.48,44.52,68,37.49,87.27,26L74.1,8.9Z"/><path class="cls-5" d="M64.6,7.65,76.4,26.17S65,36.32,67.73,49.68a18.38,18.38,0,0,1,.61-19.53L60.13,13.31Z"/><path class="cls-6" d="M53.79,13.75v0C43.41,16.42,43,24.94,43,26.66a.2.2,0,0,1-.28.18A12.3,12.3,0,0,0,34.8,26c-.87.15-8.24,2.4-7.42,10.24s10,8.71,10,8.71l24.76,0h0C56.53,39.19,49.13,28.31,53.79,13.75Z"/><path class="cls-2" d="M65.38,28.84,55.92,8.78A21.41,21.41,0,0,0,45.39,12.2a18.45,18.45,0,0,0-6.35,9s-5.3-1.65-10.89,2.63a15.11,15.11,0,0,0-5.84,11.73c0,1.23.21,8.09,7.88,12.45A13.54,13.54,0,0,0,35,49.68H67.73C60.13,41.74,65.38,28.84,65.38,28.84ZM62.27,45,37.5,45s-9.22-.87-10-8.71S34,26.2,34.89,26.05a12.27,12.27,0,0,1,7.9.85.2.2,0,0,0,.28-.18c0-1.71.43-10.24,10.8-12.88v0C49.21,28.38,56.61,39.26,62.27,45Z"/></svg>