<svg id="图层_1" data-name="图层 1" xmlns="http://www.w3.org/2000/svg" viewBox="0 0 85.04 71.56"><defs><style>.cls-1{fill:#6b7280;}.cls-2{fill:#3b82f6;}.cls-3{fill:#23cf60;}.cls-4{fill:#ff3860;}.cls-5{fill:#ffdb57;}.cls-6{fill:none;}</style></defs><path class="cls-1" d="M35.27,58.5H30.68V51.16a.28.28,0,0,0-.28-.28H29.33a.28.28,0,0,0-.29.28v8.48a.29.29,0,0,0,.29.28h5.94a.29.29,0,0,0,.29-.28v-.85A.29.29,0,0,0,35.27,58.5Z"/><path class="cls-1" d="M54.42,50.87H48.48a.29.29,0,0,0-.28.29V52a.29.29,0,0,0,.28.29h2.15v7.35a.29.29,0,0,0,.29.28H52a.29.29,0,0,0,.28-.28V52.29h2.15A.28.28,0,0,0,54.7,52v-.84A.28.28,0,0,0,54.42,50.87Z"/><path class="cls-1" d="M39.07,54.69H35.8c-.08,0-.15.12-.15.28v.85c0,.16.07.28.15.28h3.27c.09,0,.16-.12.16-.28V55C39.23,54.81,39.16,54.69,39.07,54.69Z"/><path class="cls-1" d="M28,50.88H22a.28.28,0,0,0-.29.28v8.48a.29.29,0,0,0,.29.28H28a.28.28,0,0,0,.28-.28v-.85A.28.28,0,0,0,28,58.5H23.36V56.11h4.27a.29.29,0,0,0,.28-.29V55a.29.29,0,0,0-.28-.28H23.36v-2.4H28a.28.28,0,0,0,.28-.28v-.85A.27.27,0,0,0,28,50.88Z"/><path class="cls-1" d="M46.46,55.18c-1.53-.94-2.94-.41-3.58-1.29a1.21,1.21,0,0,1-.23-.91,1,1,0,0,1,.28-.51,1.87,1.87,0,0,1,2.45.28,2,2,0,0,1,.43,1,.2.2,0,0,0,.2.16h1.25a.19.19,0,0,0,.19-.2,3,3,0,0,0-.32-1.27c-.9-1.77-3.22-1.68-3.35-1.67A3.1,3.1,0,0,0,41.34,52a2.37,2.37,0,0,0-.34,1,2,2,0,0,0,1,2.36c.95.55,1.33.34,2.75.89a2,2,0,0,1,1,.68,1,1,0,0,1,0,.9c-.19.58-.82.91-1.83.84,0,0-1.49,0-1.73-1.89a.19.19,0,0,0-.19-.18H40.82a.2.2,0,0,0-.2.21,4.09,4.09,0,0,0,.51,1.76A3.68,3.68,0,0,0,44.2,60a3.38,3.38,0,0,0,3-1.24,2.74,2.74,0,0,0,.34-2A2.49,2.49,0,0,0,46.46,55.18Z"/><path class="cls-1" d="M70.76,59.65,69.24,56a2.32,2.32,0,0,0,1.31-1.43,3.19,3.19,0,0,0-.14-2.32,2.69,2.69,0,0,0-1.51-1.21,4.55,4.55,0,0,0-1.17-.2H64a.2.2,0,0,0-.2.2v8.56a.28.28,0,0,0,.28.28h1.07a.29.29,0,0,0,.28-.28V56.23h2.09L69,59.81a.2.2,0,0,0,.18.12h1.36A.2.2,0,0,0,70.76,59.65Zm-5.22-5.33V52.53a.2.2,0,0,1,.19-.19h2a1.09,1.09,0,1,1,0,2.18H65.73A.2.2,0,0,1,65.54,54.32Z"/><path class="cls-1" d="M59.72,51a.2.2,0,0,0-.18-.12H58a.22.22,0,0,0-.19.12l-3.61,8.58a.2.2,0,0,0,.19.27h1.35a.21.21,0,0,0,.19-.12l.69-1.65.1-.24h0l2-4.84,1.45,3.43H58.35l-.59,1.41h3.05l.8,1.89a.18.18,0,0,0,.18.12h1.36a.19.19,0,0,0,.18-.27Z"/><path class="cls-1" d="M20,55.32a.2.2,0,0,1,0-.34,2.07,2.07,0,0,0,.63-.76A2.37,2.37,0,0,0,20.41,52a2.5,2.5,0,0,0-1.42-1,3.82,3.82,0,0,0-.82-.13l-3.77,0a.2.2,0,0,0-.2.2v8.64a.2.2,0,0,0,.2.2h3.86s2.09,0,2.65-1.46a2.55,2.55,0,0,0-.2-2.43A1.71,1.71,0,0,0,20,55.32Zm-4.13-2.79a.19.19,0,0,1,.2-.19h1.84A1.1,1.1,0,0,1,19,53.52a1.08,1.08,0,0,1-1.15,1H16a.2.2,0,0,1-.2-.2Zm2.19,6H16a.2.2,0,0,1-.2-.2v-2a.2.2,0,0,1,.2-.2h2a1.22,1.22,0,0,1,1.21,1.3A1.19,1.19,0,0,1,18,58.52Z"/><path class="cls-2" d="M52.35,40.57v3.52h5.86a12.8,12.8,0,0,0,5-1.58,11.52,11.52,0,0,0,4.84-5.69,11.48,11.48,0,0,0,.5-5.61L65.14,32s.76,2.12-1.28,5.33-6.21,3.3-6.21,3.3Z"/><path class="cls-3" d="M60.6,15l10.76,14.4s-18,2.36-22.47,14.7l.47-3.26S53.18,31.61,66.23,27L58.38,16.57Z"/><path class="cls-4" d="M50.33,15l7.36,11s-9.71,8.2-8.8,18.15h0c2.13-4,.2-9.45,15.14-18.37L53.82,12.48Z"/><path class="cls-5" d="M46.46,11.51l9.15,14.36s-8.87,7.86-6.72,18.22A14.24,14.24,0,0,1,49.36,29L43,15.89Z"/><path class="cls-6" d="M38.08,16.24h0c-8,2.05-8.38,8.66-8.36,10a.16.16,0,0,1-.22.14,9.56,9.56,0,0,0-6.13-.66c-.67.12-6.39,1.87-5.76,7.94s7.79,6.75,7.79,6.75l19.2,0h0C40.2,36,34.47,27.53,38.08,16.24Z"/><path class="cls-2" d="M47.07,27.94,39.73,12.38A16.65,16.65,0,0,0,31.57,15,14.29,14.29,0,0,0,26.64,22a9.83,9.83,0,0,0-8.43,2,11.69,11.69,0,0,0-4.53,9.09c0,1,.16,6.27,6.1,9.65a10.54,10.54,0,0,0,3.71,1.33h25.4C43,37.94,47.07,27.94,47.07,27.94ZM44.65,40.48l-19.2,0s-7.15-.67-7.78-6.75,5.08-7.82,5.76-7.94a9.64,9.64,0,0,1,6.13.66.15.15,0,0,0,.21-.14c0-1.33.33-7.94,8.37-10h0C34.53,27.58,40.27,36,44.65,40.48Z"/></svg>