<?xml version="1.0" encoding="UTF-8" standalone="no"?>
<!DOCTYPE svg PUBLIC "-//W3C//DTD SVG 1.1//EN" "http://www.w3.org/Graphics/SVG/1.1/DTD/svg11.dtd">
<svg width="100%" height="100%" viewBox="0 0 842 596" version="1.1" xmlns="http://www.w3.org/2000/svg" xmlns:xlink="http://www.w3.org/1999/xlink" xml:space="preserve" xmlns:serif="http://www.serif.com/" style="fill-rule:evenodd;clip-rule:evenodd;stroke-linejoin:round;stroke-miterlimit:1.41421;">
    <g transform="matrix(1,0,0,1,-947.126,0)">
        <g id="页面-2" serif:id="页面 2" transform="matrix(1,0,0,1,947.126,0)">
            <rect x="0" y="0" width="841.89" height="595.28" style="fill:none;"/>
            <g id="图层-1" serif:id="图层 1">
                <g transform="matrix(1,0,0,1,467.592,294.589)">
                    <path d="M0,38.356L-28.394,38.356L-28.394,-7.069C-28.394,-8.07 -29.209,-8.884 -30.209,-8.884L-36.823,-8.884C-37.823,-8.884 -38.638,-8.07 -38.638,-7.069L-38.638,45.424C-38.638,46.426 -37.823,47.24 -36.823,47.24L0,47.24C1.001,47.24 1.815,46.426 1.815,45.424L1.815,40.171C1.815,39.17 1.001,38.356 0,38.356" style="fill:rgb(74,74,74);fill-rule:nonzero;"/>
                </g>
                <g transform="matrix(1,0,0,1,588.015,334.76)">
                    <path d="M0,-42.015L0,-47.268C0,-48.27 -0.813,-49.084 -1.815,-49.084L-38.593,-49.084C-39.595,-49.084 -40.408,-48.27 -40.408,-47.268L-40.408,-42.015C-40.408,-41.014 -39.595,-40.2 -38.593,-40.2L-25.326,-40.2L-25.326,5.254C-25.326,6.256 -24.513,7.069 -23.511,7.069L-16.897,7.069C-15.896,7.069 -15.082,6.256 -15.082,5.254L-15.082,-40.2L-1.815,-40.2C-0.813,-40.2 0,-41.014 0,-42.015" style="fill:rgb(74,74,74);fill-rule:nonzero;"/>
                </g>
                <g transform="matrix(1,0,0,1,491.139,318.196)">
                    <path d="M0,-8.885L-20.264,-8.885C-20.83,-8.885 -21.291,-8.071 -21.291,-7.07L-21.291,-1.816C-21.291,-0.815 -20.83,0 -20.264,0L0,0C0.566,0 1.027,-0.815 1.027,-1.816L1.027,-7.07C1.027,-8.071 0.566,-8.885 0,-8.885" style="fill:rgb(74,74,74);fill-rule:nonzero;"/>
                </g>
                <g transform="matrix(1,0,0,1,422.243,341.829)">
                    <path d="M0,-56.124L-36.822,-56.124C-37.823,-56.124 -38.637,-55.31 -38.637,-54.309L-38.637,-1.815C-38.637,-0.813 -37.823,0 -36.822,0L0,0C1.001,0 1.815,-0.813 1.815,-1.815L1.815,-7.068C1.815,-8.069 1.001,-8.884 0,-8.884L-28.394,-8.884L-28.394,-23.619L-2.012,-23.619C-1.012,-23.619 -0.198,-24.434 -0.198,-25.435L-0.198,-30.688C-0.198,-31.69 -1.012,-32.504 -2.012,-32.504L-28.394,-32.504L-28.394,-47.24L0,-47.24C1.001,-47.24 1.815,-48.054 1.815,-49.055L1.815,-54.309C1.815,-55.31 1.001,-56.124 0,-56.124" style="fill:rgb(74,74,74);fill-rule:nonzero;"/>
                </g>
                <g transform="matrix(1,0,0,1,536.951,314.482)">
                    <path d="M0,-2.104C-4.646,-4.949 -9.031,-5.615 -12.898,-6.201C-16.964,-6.816 -20.175,-7.303 -22.204,-10.106C-23.429,-11.794 -23.895,-13.666 -23.589,-15.667C-23.35,-17.223 -22.384,-18.276 -21.92,-18.782L-21.899,-18.804C-20.69,-20.125 -18.452,-20.893 -15.859,-20.893C-15.723,-20.893 -15.586,-20.892 -15.447,-20.887C-11.915,-20.777 -8.599,-19.319 -6.79,-17.081C-5.064,-14.944 -4.384,-12.612 -4.116,-11.033C-4.013,-10.423 -3.484,-9.981 -2.859,-9.981L4.873,-9.981C5.228,-9.981 5.569,-10.127 5.812,-10.381C6.052,-10.634 6.177,-10.964 6.16,-11.311C6.025,-14.182 5.346,-16.834 4.144,-19.192C-1.509,-30.267 -16.067,-29.585 -16.688,-29.558C-19.09,-29.424 -21.348,-29.01 -23.397,-28.327C-27.186,-27.062 -30.022,-24.975 -31.828,-22.122C-32.932,-20.378 -33.641,-18.32 -33.935,-16.004C-34.471,-11.775 -33.981,-8.444 -32.438,-5.823C-31.09,-3.53 -29.133,-2.201 -27.577,-1.299C-24.408,0.537 -22.265,0.992 -19.552,1.567C-17.224,2.06 -14.586,2.62 -10.56,4.179C-7.521,5.358 -5.279,6.347 -4.091,8.376C-2.973,10.284 -3.17,11.957 -3.81,13.878C-4.944,17.297 -8.418,19.138 -13.663,19.138C-14.141,19.138 -14.63,19.123 -15.135,19.091L-15.164,19.091C-15.439,19.091 -17.608,19.047 -19.906,17.716C-22.164,16.41 -25.015,13.557 -25.767,7.388C-25.847,6.728 -26.393,6.229 -27.034,6.229L-35.019,6.229C-35.381,6.229 -35.729,6.381 -35.972,6.646C-36.214,6.91 -36.33,7.252 -36.3,7.609C-35.785,13.634 -34.104,17.048 -33.149,18.547C-30.501,22.702 -25.04,27.736 -14.06,28.126C-13.633,28.142 -13.042,28.163 -12.326,28.163C-10.567,28.163 -8.063,28.035 -5.43,27.381C-0.811,26.234 2.669,23.875 4.914,20.37L4.944,20.323C5.729,19.134 8.197,14.722 7.006,7.876C6.188,3.175 2.721,-0.438 0,-2.104" style="fill:rgb(74,74,74);fill-rule:nonzero;"/>
                </g>
                <g transform="matrix(1,0,0,1,675.65,325.476)">
                    <path d="M0,-23.361C-0.268,-19.913 -3.386,-17.192 -6.94,-17.192C-7.115,-17.192 -7.289,-17.198 -7.465,-17.213L-19.367,-17.213C-20.009,-17.213 -20.53,-17.734 -20.53,-18.377L-20.53,-29.444C-20.53,-30.087 -20.009,-30.608 -19.367,-30.608L-7.197,-30.607C-7.127,-30.609 -7.055,-30.61 -6.983,-30.61C-5.063,-30.61 -3.212,-29.818 -1.875,-28.417C-0.542,-27.02 0.143,-25.176 0,-23.361M11.803,14.626L2.394,-7.725C5.281,-9.052 9.017,-11.663 10.544,-16.584C12.05,-21.438 11.677,-27.371 9.636,-31.009C6.859,-35.955 2.567,-37.617 0.261,-38.51C-2.395,-39.541 -6.945,-39.751 -6.994,-39.754L-22.861,-39.754C-22.868,-39.754 -22.877,-39.756 -22.888,-39.759C-22.905,-39.764 -22.926,-39.771 -22.952,-39.771L-29.564,-39.771C-29.589,-39.771 -29.61,-39.764 -29.627,-39.759C-29.638,-39.756 -29.647,-39.754 -29.653,-39.754L-30.076,-39.754L-30.095,-39.754C-30.435,-39.754 -30.756,-39.622 -30.997,-39.382C-31.244,-39.139 -31.38,-38.815 -31.38,-38.469L-31.38,14.537C-31.38,15.539 -30.565,16.353 -29.564,16.353L-22.952,16.353C-21.95,16.353 -21.136,15.539 -21.136,14.537L-21.136,-6.492L-8.291,-6.492L1.034,15.624C1.236,16.101 1.7,16.41 2.218,16.41L10.618,16.41C11.05,16.41 11.449,16.194 11.688,15.834C11.927,15.475 11.97,15.024 11.803,14.626" style="fill:rgb(74,74,74);fill-rule:nonzero;"/>
                </g>
                <g transform="matrix(1,0,0,1,619.089,340.824)">
                    <path d="M0,-54.114C-0.201,-54.592 -0.665,-54.901 -1.184,-54.901L-10.679,-54.901C-11.196,-54.901 -11.66,-54.592 -11.862,-54.114L-34.219,-0.996C-34.386,-0.598 -34.343,-0.147 -34.104,0.212C-33.865,0.572 -33.466,0.787 -33.035,0.787L-24.635,0.787C-24.117,0.787 -23.653,0.479 -23.45,0.002L-5.931,-41.549L2.921,-20.559L-8.573,-20.559L-12.288,-11.758L-12.323,-11.674L6.667,-11.674L11.59,0.002C11.791,0.479 12.255,0.787 12.772,0.787L21.173,0.787C21.604,0.787 22.005,0.572 22.243,0.213C22.481,-0.146 22.524,-0.598 22.358,-0.996L0,-54.114Z" style="fill:rgb(74,74,74);fill-rule:nonzero;"/>
                </g>
                <g transform="matrix(1,0,0,1,366.54,325.425)">
                    <path d="M0,-23.317C-0.129,-21.561 -0.983,-19.884 -2.345,-18.716C-3.667,-17.584 -5.333,-17.031 -7.021,-17.17L-18.146,-17.17C-18.787,-17.17 -19.31,-17.69 -19.31,-18.333L-19.31,-29.401C-19.31,-30.043 -18.787,-30.565 -18.145,-30.565L-6.769,-30.563C-6.699,-30.565 -6.63,-30.566 -6.56,-30.566C-4.819,-30.566 -3.18,-29.853 -1.923,-28.546C-0.562,-27.129 0.139,-25.222 0,-23.317M-18.146,7.625C-18.787,7.625 -19.31,7.105 -19.31,6.463L-19.31,-5.948C-19.31,-6.589 -18.787,-7.112 -18.145,-7.112L-5.519,-7.109C-5.441,-7.112 -5.364,-7.114 -5.288,-7.114C-3.374,-7.114 -1.569,-6.329 -0.187,-4.889C1.311,-3.33 2.082,-1.234 1.929,0.862C1.787,2.794 0.847,4.639 -0.651,5.924C-2.104,7.171 -3.926,7.778 -5.79,7.625L-18.146,7.625ZM6.202,-12.217C5.818,-12.415 5.568,-12.78 5.533,-13.197C5.5,-13.588 5.663,-13.949 5.981,-14.189C7.199,-15.105 8.868,-16.677 9.901,-18.959C11.903,-23.379 11.568,-28.888 9.068,-32.667C6.475,-36.587 2.439,-37.902 0.271,-38.609L0.203,-38.631C-1.912,-39.323 -4.876,-39.423 -4.906,-39.425L-28.223,-39.713L-28.238,-39.713C-28.579,-39.713 -28.899,-39.582 -29.142,-39.342C-29.388,-39.099 -29.523,-38.775 -29.523,-38.428L-29.523,15.112C-29.523,15.821 -28.947,16.396 -28.238,16.396L-4.341,16.396C-4.182,16.396 -0.976,16.379 2.593,15.294C8.693,13.44 11.151,9.942 12.14,7.334C15.56,-1.693 10.958,-7.689 10.918,-7.736C10.905,-7.763 9.612,-10.459 6.202,-12.217" style="fill:rgb(74,74,74);fill-rule:nonzero;"/>
                </g>
                <g transform="matrix(1.03804,0,0,1.03804,13.4727,22.786)">
                    <g transform="matrix(1,0,0,1,236.954,282.32)">
                        <path d="M0,15.293L0,24.531L15.379,24.531C15.379,24.531 22.763,23.959 28.524,20.389C34.285,16.818 38.782,11.865 41.215,5.466C43.648,-0.935 42.854,-7.493 42.537,-9.238L33.546,-7.228C33.546,-7.228 35.544,-1.674 30.186,6.767C24.829,15.208 13.911,15.41 13.911,15.41L0,15.293Z" style="fill:rgb(109,164,215);fill-rule:nonzero;"/>
                    </g>
                    <g transform="matrix(1,0,0,1,231.657,300.275)">
                        <path d="M0,-69.738L19.309,-41.013C19.309,-41.013 -6.168,-19.504 -3.779,6.576C1.815,-3.913 -3.239,-18.196 35.929,-41.581L9.167,-76.314L0,-69.738Z" style="fill:rgb(239,58,97);fill-rule:nonzero;"/>
                    </g>
                    <g transform="matrix(1,0,0,1,221.515,306.851)">
                        <path d="M0,-85.426L23.989,-47.784C23.989,-47.784 0.729,-27.162 6.362,0C6.362,0 -5.975,-18.728 7.601,-39.695L-9.082,-73.931L0,-85.426Z" style="fill:rgb(253,219,85);fill-rule:nonzero;"/>
                    </g>
                    <g transform="matrix(1.68292,0,0,1.68292,216.899,232.985)">
                        <path d="M0,38.225L-29.902,38.225C-29.902,38.225 -41.02,37.155 -42.03,27.703C-43.04,18.25 -34.123,15.516 -33.053,15.337C-31.983,15.16 -28.714,14.208 -23.482,16.348C-23.363,16.408 -23.244,16.348 -23.185,16.229L-23.185,16.111C-23.185,14.03 -22.649,3.746 -10.166,0.535C-15.754,18.191 -6.837,31.329 0,38.225M3.805,18.666L-7.609,-5.588C-7.609,-5.588 -14.684,-5.41 -20.331,-1.426C-25.979,2.556 -28,9.393 -28,9.393C-28,9.393 -34.421,7.371 -41.138,12.543C-45.537,15.932 -48.094,21.163 -48.212,26.692C-48.212,28.178 -47.975,36.442 -38.701,41.733C-36.917,42.802 -34.955,43.456 -32.935,43.813L6.658,43.813C-2.557,34.301 3.805,18.666 3.805,18.666" style="fill:rgb(109,164,215);fill-rule:nonzero;"/>
                    </g>
                </g>
                <g transform="matrix(1,0,0,1,282.953,341.82)">
                    <path d="M0,-79.672L29.466,-40.24C29.466,-40.24 -19.714,-33.769 -32.06,0L-30.766,-8.922C-30.766,-8.922 -20.318,-34.15 15.414,-46.79L-6.069,-75.345L0,-79.672Z" style="fill:rgb(35,207,96);fill-rule:nonzero;"/>
                </g>
            </g>
        </g>
    </g>
</svg>
